<?xml version="1.0" encoding="utf-8"?>
<!-- Generator: Adobe Illustrator 26.2.1, SVG Export Plug-In . SVG Version: 6.00 Build 0)  -->
<svg version="1.1" id="Capa_1" xmlns="http://www.w3.org/2000/svg" xmlns:xlink="http://www.w3.org/1999/xlink" x="0px" y="0px"
	 viewBox="0 0 595.3 488.8" style="enable-background:new 0 0 595.3 488.8;" xml:space="preserve">
<style type="text/css">
	.st0{opacity:5.000000e-02;fill:#1D1D1B;enable-background:new    ;}
</style>
<path class="st0" d="M388.4,255.4h100.8c-5.7,100.9-89.3,181-191.6,181s-185.9-80.1-191.6-181h100.7c5.4,45.4,44,80.6,90.9,80.6
	S383,300.7,388.4,255.4z"/>
<path class="st0" d="M206.7,233.8H105.9c5.5-101,89.2-181.3,191.6-181.3s186.1,80.3,191.6,181.3H388.5c-5.2-45.5-44-80.9-90.9-80.9
	S211.9,188.3,206.7,233.8z"/>
<path class="st0" d="M367,233.8c-5.1-33.8-34.3-59.6-69.5-59.6s-64.3,25.9-69.5,59.6c-0.5,3.5-0.8,7-0.8,10.6c0,3.7,0.3,7.4,0.9,11
	c5.3,33.6,34.3,59.3,69.4,59.3s64.1-25.7,69.4-59.3c0.6-3.6,0.8-7.2,0.8-11C367.8,240.8,367.5,237.3,367,233.8z M297.5,274.5
	c-12.8,0-23.6-7.9-28-19.1c-1.3-3.4-2.1-7.1-2.1-11c0-3.7,0.7-7.3,1.9-10.6c4.3-11.4,15.3-19.5,28.2-19.5s23.9,8.1,28.2,19.5
	c1.2,3.3,1.9,6.9,1.9,10.6c0,3.9-0.7,7.6-2.1,11C321.2,266.6,310.3,274.5,297.5,274.5z"/>
</svg>
